<mxfile host="app.diagrams.net" modified="2023-12-08T10:02:29.497Z" agent="Mozilla/5.0 (Windows NT 10.0; Win64; x64) AppleWebKit/537.36 (KHTML, like Gecko) Chrome/120.0.0.0 Safari/537.36" version="22.1.7" etag="HFoNv_qJvwlgmX-67Ant" type="github">
  <diagram name="第 1 页" id="-2zbKaq_x1Sfa3k-OHGh">
    <mxGraphModel>
      <root>
        <mxCell id="0" />
        <mxCell id="1" parent="0" />
      </root>
    </mxGraphModel>
  </diagram>
</mxfile>
